<?xml version="1.0" encoding="UTF-8" standalone="no"?>
<!DOCTYPE svg PUBLIC "-//W3C//DTD SVG 1.1//EN"
 "http://www.w3.org/Graphics/SVG/1.1/DTD/svg11.dtd">
<!-- Generated by graphviz version 2.47.0 (20210316.0004)
 -->
<!-- Title: dependencies Pages: 1 -->
<svg width="4359pt" height="284pt"
 viewBox="0.00 0.00 4359.00 284.00" xmlns="http://www.w3.org/2000/svg" xmlns:xlink="http://www.w3.org/1999/xlink">
<g id="graph0" class="graph" transform="scale(1 1) rotate(0) translate(4 280)">
<title>dependencies</title>
<polygon fill="white" stroke="transparent" points="-4,4 -4,-280 4355,-280 4355,4 -4,4"/>
<text text-anchor="start" x="2154.51" y="-42.4" font-family="Times-12" font-weight="bold" font-size="14.00">Legend</text>
<polygon fill="#ffffb3" stroke="transparent" points="1941.5,-10 1941.5,-30 1961.5,-30 1961.5,-10 1941.5,-10"/>
<text text-anchor="start" x="1965.13" y="-15.4" font-family="Times-12" font-size="14.00"> &#160;Declarations</text>
<polygon fill="#8dd3c7" stroke="transparent" points="2054.5,-10 2054.5,-30 2074.5,-30 2074.5,-10 2054.5,-10"/>
<text text-anchor="start" x="2078.23" y="-15.4" font-family="Times-12" font-size="14.00"> &#160;Module</text>
<polygon fill="#80b1d3" stroke="transparent" points="2140.5,-10 2140.5,-30 2160.5,-30 2160.5,-10 2140.5,-10"/>
<text text-anchor="start" x="2164.28" y="-15.4" font-family="Times-12" font-size="14.00"> &#160;Bootstrap</text>
<polygon fill="#fdb462" stroke="transparent" points="2237.5,-10 2237.5,-30 2257.5,-30 2257.5,-10 2237.5,-10"/>
<text text-anchor="start" x="2261.17" y="-15.4" font-family="Times-12" font-size="14.00"> &#160;Providers</text>
<polygon fill="#fb8072" stroke="transparent" points="2333.5,-10 2333.5,-30 2353.5,-30 2353.5,-10 2333.5,-10"/>
<text text-anchor="start" x="2357.23" y="-15.4" font-family="Times-12" font-size="14.00"> &#160;Exports</text>
<g id="clust1" class="cluster">
<title>cluster_AppModule</title>
<polygon fill="none" stroke="black" stroke-dasharray="1,5" points="8,-70 8,-268 4343,-268 4343,-70 8,-70"/>
</g>
<g id="clust27" class="cluster">
<title>cluster_AppModule_imports</title>
<polygon fill="none" stroke="black" points="4191,-78 4191,-130 4335,-130 4335,-78 4191,-78"/>
</g>
<g id="clust29" class="cluster">
<title>cluster_AppModule_bootstrap</title>
<polygon fill="none" stroke="black" points="2161,-208 2161,-260 2285,-260 2285,-208 2161,-208"/>
</g>
<g id="clust30" class="cluster">
<title>cluster_AppModule_providers</title>
<polygon fill="none" stroke="black" points="4023,-78 4023,-130 4183,-130 4183,-78 4023,-78"/>
</g>
<g id="clust2" class="cluster">
<title>cluster_AppModule_declarations</title>
<polygon fill="none" stroke="black" points="16,-78 16,-130 4015,-130 4015,-78 16,-78"/>
</g>
<!-- AdminComponent -->
<g id="node1" class="node">
<title>AdminComponent</title>
<polygon fill="#ffffb3" stroke="black" points="4007.22,-122 3886.78,-122 3886.78,-86 4007.22,-86 4007.22,-122"/>
<text text-anchor="middle" x="3947" y="-99.8" font-family="Times,serif" font-size="14.00">AdminComponent</text>
</g>
<!-- AppModule -->
<g id="node25" class="node">
<title>AppModule</title>
<polygon fill="#8dd3c7" stroke="black" points="2264.66,-187 2261.66,-191 2240.66,-191 2237.66,-187 2181.34,-187 2181.34,-151 2264.66,-151 2264.66,-187"/>
<text text-anchor="middle" x="2223" y="-164.8" font-family="Times,serif" font-size="14.00">AppModule</text>
</g>
<!-- AdminComponent&#45;&gt;AppModule -->
<g id="edge1" class="edge">
<title>AdminComponent&#45;&gt;AppModule</title>
<path fill="none" stroke="black" d="M3947,-122.16C3947,-144.35 3947,-179 3947,-179 3947,-179 2274.76,-179 2274.76,-179"/>
<polygon fill="black" stroke="black" points="2274.76,-175.5 2264.76,-179 2274.76,-182.5 2274.76,-175.5"/>
</g>
<!-- AideComponent -->
<g id="node2" class="node">
<title>AideComponent</title>
<polygon fill="#ffffb3" stroke="black" points="3869.05,-122 3760.95,-122 3760.95,-86 3869.05,-86 3869.05,-122"/>
<text text-anchor="middle" x="3815" y="-99.8" font-family="Times,serif" font-size="14.00">AideComponent</text>
</g>
<!-- AideComponent&#45;&gt;AppModule -->
<g id="edge2" class="edge">
<title>AideComponent&#45;&gt;AppModule</title>
<path fill="none" stroke="black" d="M3815,-122.17C3815,-143.5 3815,-176 3815,-176 3815,-176 2274.76,-176 2274.76,-176"/>
<polygon fill="black" stroke="black" points="2274.76,-172.5 2264.76,-176 2274.76,-179.5 2274.76,-172.5"/>
</g>
<!-- AppComponent -->
<g id="node3" class="node">
<title>AppComponent</title>
<polygon fill="#ffffb3" stroke="black" points="3742.94,-122 3637.06,-122 3637.06,-86 3742.94,-86 3742.94,-122"/>
<text text-anchor="middle" x="3690" y="-99.8" font-family="Times,serif" font-size="14.00">AppComponent</text>
</g>
<!-- AppComponent&#45;&gt;AppModule -->
<g id="edge3" class="edge">
<title>AppComponent&#45;&gt;AppModule</title>
<path fill="none" stroke="black" d="M3690,-122.03C3690,-142.77 3690,-174 3690,-174 3690,-174 2274.93,-174 2274.93,-174"/>
<polygon fill="black" stroke="black" points="2274.93,-170.5 2264.93,-174 2274.93,-177.5 2274.93,-170.5"/>
</g>
<!-- ArticleTendanceComponent -->
<g id="node4" class="node">
<title>ArticleTendanceComponent</title>
<polygon fill="#ffffb3" stroke="black" points="3619.11,-122 3444.89,-122 3444.89,-86 3619.11,-86 3619.11,-122"/>
<text text-anchor="middle" x="3532" y="-99.8" font-family="Times,serif" font-size="14.00">ArticleTendanceComponent</text>
</g>
<!-- ArticleTendanceComponent&#45;&gt;AppModule -->
<g id="edge4" class="edge">
<title>ArticleTendanceComponent&#45;&gt;AppModule</title>
<path fill="none" stroke="black" d="M3532,-122.31C3532,-142.15 3532,-171 3532,-171 3532,-171 2274.7,-171 2274.7,-171"/>
<polygon fill="black" stroke="black" points="2274.7,-167.5 2264.7,-171 2274.7,-174.5 2274.7,-167.5"/>
</g>
<!-- CatgoriePageComponent -->
<g id="node5" class="node">
<title>CatgoriePageComponent</title>
<polygon fill="#ffffb3" stroke="black" points="3426.25,-122 3269.75,-122 3269.75,-86 3426.25,-86 3426.25,-122"/>
<text text-anchor="middle" x="3348" y="-99.8" font-family="Times,serif" font-size="14.00">CatgoriePageComponent</text>
</g>
<!-- CatgoriePageComponent&#45;&gt;AppModule -->
<g id="edge5" class="edge">
<title>CatgoriePageComponent&#45;&gt;AppModule</title>
<path fill="none" stroke="black" d="M3348,-122.17C3348,-141.09 3348,-168 3348,-168 3348,-168 2274.71,-168 2274.71,-168"/>
<polygon fill="black" stroke="black" points="2274.71,-164.5 2264.71,-168 2274.71,-171.5 2274.71,-164.5"/>
</g>
<!-- ChatroomComponent -->
<g id="node6" class="node">
<title>ChatroomComponent</title>
<polygon fill="#ffffb3" stroke="black" points="3251.83,-122 3114.17,-122 3114.17,-86 3251.83,-86 3251.83,-122"/>
<text text-anchor="middle" x="3183" y="-99.8" font-family="Times,serif" font-size="14.00">ChatroomComponent</text>
</g>
<!-- ChatroomComponent&#45;&gt;AppModule -->
<g id="edge6" class="edge">
<title>ChatroomComponent&#45;&gt;AppModule</title>
<path fill="none" stroke="black" d="M3183,-122.3C3183,-140.27 3183,-165 3183,-165 3183,-165 2274.87,-165 2274.87,-165"/>
<polygon fill="black" stroke="black" points="2274.87,-161.5 2264.87,-165 2274.87,-168.5 2274.87,-161.5"/>
</g>
<!-- CommentairesComponent -->
<g id="node7" class="node">
<title>CommentairesComponent</title>
<polygon fill="#ffffb3" stroke="black" points="3096.48,-122 2933.52,-122 2933.52,-86 3096.48,-86 3096.48,-122"/>
<text text-anchor="middle" x="3015" y="-99.8" font-family="Times,serif" font-size="14.00">CommentairesComponent</text>
</g>
<!-- CommentairesComponent&#45;&gt;AppModule -->
<g id="edge7" class="edge">
<title>CommentairesComponent&#45;&gt;AppModule</title>
<path fill="none" stroke="black" d="M3015,-122.02C3015,-139.37 3015,-163 3015,-163 3015,-163 2274.74,-163 2274.74,-163"/>
<polygon fill="black" stroke="black" points="2274.74,-159.5 2264.74,-163 2274.74,-166.5 2274.74,-159.5"/>
</g>
<!-- ConnexionComponent -->
<g id="node8" class="node">
<title>ConnexionComponent</title>
<polygon fill="#ffffb3" stroke="black" points="2915.27,-122 2772.73,-122 2772.73,-86 2915.27,-86 2915.27,-122"/>
<text text-anchor="middle" x="2844" y="-99.8" font-family="Times,serif" font-size="14.00">ConnexionComponent</text>
</g>
<!-- ConnexionComponent&#45;&gt;AppModule -->
<g id="edge8" class="edge">
<title>ConnexionComponent&#45;&gt;AppModule</title>
<path fill="none" stroke="black" d="M2844,-122.03C2844,-138.4 2844,-160 2844,-160 2844,-160 2274.71,-160 2274.71,-160"/>
<polygon fill="black" stroke="black" points="2274.71,-156.5 2264.71,-160 2274.71,-163.5 2274.71,-156.5"/>
</g>
<!-- CreateEnchereComponent -->
<g id="node9" class="node">
<title>CreateEnchereComponent</title>
<polygon fill="#ffffb3" stroke="black" points="2754.72,-122 2591.28,-122 2591.28,-86 2754.72,-86 2754.72,-122"/>
<text text-anchor="middle" x="2673" y="-99.8" font-family="Times,serif" font-size="14.00">CreateEnchereComponent</text>
</g>
<!-- CreateEnchereComponent&#45;&gt;AppModule -->
<g id="edge9" class="edge">
<title>CreateEnchereComponent&#45;&gt;AppModule</title>
<path fill="none" stroke="black" d="M2673,-122.24C2673,-137.57 2673,-157 2673,-157 2673,-157 2274.93,-157 2274.93,-157"/>
<polygon fill="black" stroke="black" points="2274.93,-153.5 2264.93,-157 2274.93,-160.5 2274.93,-153.5"/>
</g>
<!-- DerniereEnchereComponent -->
<g id="node10" class="node">
<title>DerniereEnchereComponent</title>
<polygon fill="#ffffb3" stroke="black" points="2573.15,-122 2396.85,-122 2396.85,-86 2573.15,-86 2573.15,-122"/>
<text text-anchor="middle" x="2485" y="-99.8" font-family="Times,serif" font-size="14.00">DerniereEnchereComponent</text>
</g>
<!-- DerniereEnchereComponent&#45;&gt;AppModule -->
<g id="edge10" class="edge">
<title>DerniereEnchereComponent&#45;&gt;AppModule</title>
<path fill="none" stroke="black" d="M2485,-122.05C2485,-136.37 2485,-154 2485,-154 2485,-154 2274.8,-154 2274.8,-154"/>
<polygon fill="black" stroke="black" points="2274.8,-150.5 2264.8,-154 2274.8,-157.5 2274.8,-150.5"/>
</g>
<!-- EncherePageComponent -->
<g id="node11" class="node">
<title>EncherePageComponent</title>
<polygon fill="#ffffb3" stroke="black" points="2379.4,-122 2224.6,-122 2224.6,-86 2379.4,-86 2379.4,-122"/>
<text text-anchor="middle" x="2302" y="-99.8" font-family="Times,serif" font-size="14.00">EncherePageComponent</text>
</g>
<!-- EncherePageComponent&#45;&gt;AppModule -->
<g id="edge11" class="edge">
<title>EncherePageComponent&#45;&gt;AppModule</title>
<path fill="none" stroke="black" d="M2244.81,-122.11C2244.81,-122.11 2244.81,-140.99 2244.81,-140.99"/>
<polygon fill="black" stroke="black" points="2241.31,-140.99 2244.81,-150.99 2248.31,-140.99 2241.31,-140.99"/>
</g>
<!-- FavorisComponent -->
<g id="node12" class="node">
<title>FavorisComponent</title>
<polygon fill="#ffffb3" stroke="black" points="2206.83,-122 2083.17,-122 2083.17,-86 2206.83,-86 2206.83,-122"/>
<text text-anchor="middle" x="2145" y="-99.8" font-family="Times,serif" font-size="14.00">FavorisComponent</text>
</g>
<!-- FavorisComponent&#45;&gt;AppModule -->
<g id="edge12" class="edge">
<title>FavorisComponent&#45;&gt;AppModule</title>
<path fill="none" stroke="black" d="M2193.92,-122.11C2193.92,-122.11 2193.92,-140.99 2193.92,-140.99"/>
<polygon fill="black" stroke="black" points="2190.42,-140.99 2193.92,-150.99 2197.42,-140.99 2190.42,-140.99"/>
</g>
<!-- HistoriqueComponent -->
<g id="node13" class="node">
<title>HistoriqueComponent</title>
<polygon fill="#ffffb3" stroke="black" points="2065.43,-122 1924.57,-122 1924.57,-86 2065.43,-86 2065.43,-122"/>
<text text-anchor="middle" x="1995" y="-99.8" font-family="Times,serif" font-size="14.00">HistoriqueComponent</text>
</g>
<!-- HistoriqueComponent&#45;&gt;AppModule -->
<g id="edge13" class="edge">
<title>HistoriqueComponent&#45;&gt;AppModule</title>
<path fill="none" stroke="black" d="M1995,-122.05C1995,-136.37 1995,-154 1995,-154 1995,-154 2171.18,-154 2171.18,-154"/>
<polygon fill="black" stroke="black" points="2171.18,-157.5 2181.18,-154 2171.18,-150.5 2171.18,-157.5"/>
</g>
<!-- HomeComponent -->
<g id="node14" class="node">
<title>HomeComponent</title>
<polygon fill="#ffffb3" stroke="black" points="1906.55,-122 1791.45,-122 1791.45,-86 1906.55,-86 1906.55,-122"/>
<text text-anchor="middle" x="1849" y="-99.8" font-family="Times,serif" font-size="14.00">HomeComponent</text>
</g>
<!-- HomeComponent&#45;&gt;AppModule -->
<g id="edge14" class="edge">
<title>HomeComponent&#45;&gt;AppModule</title>
<path fill="none" stroke="black" d="M1849,-122.24C1849,-137.57 1849,-157 1849,-157 1849,-157 2171.19,-157 2171.19,-157"/>
<polygon fill="black" stroke="black" points="2171.19,-160.5 2181.19,-157 2171.19,-153.5 2171.19,-160.5"/>
</g>
<!-- InscriptionComponent -->
<g id="node15" class="node">
<title>InscriptionComponent</title>
<polygon fill="#ffffb3" stroke="black" points="1772.98,-122 1631.02,-122 1631.02,-86 1772.98,-86 1772.98,-122"/>
<text text-anchor="middle" x="1702" y="-99.8" font-family="Times,serif" font-size="14.00">InscriptionComponent</text>
</g>
<!-- InscriptionComponent&#45;&gt;AppModule -->
<g id="edge15" class="edge">
<title>InscriptionComponent&#45;&gt;AppModule</title>
<path fill="none" stroke="black" d="M1702,-122.03C1702,-138.4 1702,-160 1702,-160 1702,-160 2171.25,-160 2171.25,-160"/>
<polygon fill="black" stroke="black" points="2171.25,-163.5 2181.25,-160 2171.25,-156.5 2171.25,-163.5"/>
</g>
<!-- ManageEncheresComponent -->
<g id="node16" class="node">
<title>ManageEncheresComponent</title>
<polygon fill="#ffffb3" stroke="black" points="1612.72,-122 1435.28,-122 1435.28,-86 1612.72,-86 1612.72,-122"/>
<text text-anchor="middle" x="1524" y="-99.8" font-family="Times,serif" font-size="14.00">ManageEncheresComponent</text>
</g>
<!-- ManageEncheresComponent&#45;&gt;AppModule -->
<g id="edge16" class="edge">
<title>ManageEncheresComponent&#45;&gt;AppModule</title>
<path fill="none" stroke="black" d="M1524,-122.02C1524,-139.37 1524,-163 1524,-163 1524,-163 2171.11,-163 2171.11,-163"/>
<polygon fill="black" stroke="black" points="2171.11,-166.5 2181.11,-163 2171.11,-159.5 2171.11,-166.5"/>
</g>
<!-- ManageUsersComponent -->
<g id="node17" class="node">
<title>ManageUsersComponent</title>
<polygon fill="#ffffb3" stroke="black" points="1417.29,-122 1258.71,-122 1258.71,-86 1417.29,-86 1417.29,-122"/>
<text text-anchor="middle" x="1338" y="-99.8" font-family="Times,serif" font-size="14.00">ManageUsersComponent</text>
</g>
<!-- ManageUsersComponent&#45;&gt;AppModule -->
<g id="edge17" class="edge">
<title>ManageUsersComponent&#45;&gt;AppModule</title>
<path fill="none" stroke="black" d="M1338,-122.3C1338,-140.27 1338,-165 1338,-165 1338,-165 2171.21,-165 2171.21,-165"/>
<polygon fill="black" stroke="black" points="2171.21,-168.5 2181.21,-165 2171.21,-161.5 2171.21,-168.5"/>
</g>
<!-- MesEncheresComponent -->
<g id="node18" class="node">
<title>MesEncheresComponent</title>
<polygon fill="#ffffb3" stroke="black" points="1240.24,-122 1083.76,-122 1083.76,-86 1240.24,-86 1240.24,-122"/>
<text text-anchor="middle" x="1162" y="-99.8" font-family="Times,serif" font-size="14.00">MesEncheresComponent</text>
</g>
<!-- MesEncheresComponent&#45;&gt;AppModule -->
<g id="edge18" class="edge">
<title>MesEncheresComponent&#45;&gt;AppModule</title>
<path fill="none" stroke="black" d="M1162,-122.17C1162,-141.09 1162,-168 1162,-168 1162,-168 2171.08,-168 2171.08,-168"/>
<polygon fill="black" stroke="black" points="2171.08,-171.5 2181.08,-168 2171.08,-164.5 2171.08,-171.5"/>
</g>
<!-- ObjetsGagnesComponent -->
<g id="node19" class="node">
<title>ObjetsGagnesComponent</title>
<polygon fill="#ffffb3" stroke="black" points="1065.86,-122 906.14,-122 906.14,-86 1065.86,-86 1065.86,-122"/>
<text text-anchor="middle" x="986" y="-99.8" font-family="Times,serif" font-size="14.00">ObjetsGagnesComponent</text>
</g>
<!-- ObjetsGagnesComponent&#45;&gt;AppModule -->
<g id="edge19" class="edge">
<title>ObjetsGagnesComponent&#45;&gt;AppModule</title>
<path fill="none" stroke="black" d="M986,-122.31C986,-142.15 986,-171 986,-171 986,-171 2171.13,-171 2171.13,-171"/>
<polygon fill="black" stroke="black" points="2171.13,-174.5 2181.13,-171 2171.13,-167.5 2171.13,-174.5"/>
</g>
<!-- ProfileComponent -->
<g id="node20" class="node">
<title>ProfileComponent</title>
<polygon fill="#ffffb3" stroke="black" points="887.93,-122 768.07,-122 768.07,-86 887.93,-86 887.93,-122"/>
<text text-anchor="middle" x="828" y="-99.8" font-family="Times,serif" font-size="14.00">ProfileComponent</text>
</g>
<!-- ProfileComponent&#45;&gt;AppModule -->
<g id="edge20" class="edge">
<title>ProfileComponent&#45;&gt;AppModule</title>
<path fill="none" stroke="black" d="M828,-122.03C828,-142.77 828,-174 828,-174 828,-174 2171.25,-174 2171.25,-174"/>
<polygon fill="black" stroke="black" points="2171.25,-177.5 2181.25,-174 2171.25,-170.5 2171.25,-177.5"/>
</g>
<!-- SousCategoriePageComponent -->
<g id="node21" class="node">
<title>SousCategoriePageComponent</title>
<polygon fill="#ffffb3" stroke="black" points="750.19,-122 559.81,-122 559.81,-86 750.19,-86 750.19,-122"/>
<text text-anchor="middle" x="655" y="-99.8" font-family="Times,serif" font-size="14.00">SousCategoriePageComponent</text>
</g>
<!-- SousCategoriePageComponent&#45;&gt;AppModule -->
<g id="edge21" class="edge">
<title>SousCategoriePageComponent&#45;&gt;AppModule</title>
<path fill="none" stroke="black" d="M655,-122.17C655,-143.5 655,-176 655,-176 655,-176 2171.06,-176 2171.06,-176"/>
<polygon fill="black" stroke="black" points="2171.06,-179.5 2181.06,-176 2171.06,-172.5 2171.06,-179.5"/>
</g>
<!-- TableauDeBordComponent -->
<g id="node22" class="node">
<title>TableauDeBordComponent</title>
<polygon fill="#ffffb3" stroke="black" points="542.24,-122 371.76,-122 371.76,-86 542.24,-86 542.24,-122"/>
<text text-anchor="middle" x="457" y="-99.8" font-family="Times,serif" font-size="14.00">TableauDeBordComponent</text>
</g>
<!-- TableauDeBordComponent&#45;&gt;AppModule -->
<g id="edge22" class="edge">
<title>TableauDeBordComponent&#45;&gt;AppModule</title>
<path fill="none" stroke="black" d="M457,-122.16C457,-144.35 457,-179 457,-179 457,-179 2171.09,-179 2171.09,-179"/>
<polygon fill="black" stroke="black" points="2171.09,-182.5 2181.09,-179 2171.09,-175.5 2171.09,-182.5"/>
</g>
<!-- UserSpaceComponent -->
<g id="node23" class="node">
<title>UserSpaceComponent</title>
<polygon fill="#ffffb3" stroke="black" points="353.69,-122 212.31,-122 212.31,-86 353.69,-86 353.69,-122"/>
<text text-anchor="middle" x="283" y="-99.8" font-family="Times,serif" font-size="14.00">UserSpaceComponent</text>
</g>
<!-- UserSpaceComponent&#45;&gt;AppModule -->
<g id="edge23" class="edge">
<title>UserSpaceComponent&#45;&gt;AppModule</title>
<path fill="none" stroke="black" d="M283,-122.09C283,-145.13 283,-182 283,-182 283,-182 2171.13,-182 2171.13,-182"/>
<polygon fill="black" stroke="black" points="2171.13,-185.5 2181.13,-182 2171.13,-178.5 2171.13,-185.5"/>
</g>
<!-- WatchlistPopupComponent -->
<g id="node24" class="node">
<title>WatchlistPopupComponent</title>
<polygon fill="#ffffb3" stroke="black" points="194.27,-122 23.73,-122 23.73,-86 194.27,-86 194.27,-122"/>
<text text-anchor="middle" x="109" y="-99.8" font-family="Times,serif" font-size="14.00">WatchlistPopupComponent</text>
</g>
<!-- WatchlistPopupComponent&#45;&gt;AppModule -->
<g id="edge24" class="edge">
<title>WatchlistPopupComponent&#45;&gt;AppModule</title>
<path fill="none" stroke="black" d="M109,-122.38C109,-146.28 109,-185 109,-185 109,-185 2171.25,-185 2171.25,-185"/>
<polygon fill="black" stroke="black" points="2171.25,-188.5 2181.25,-185 2171.25,-181.5 2171.25,-188.5"/>
</g>
<!-- AppComponent  -->
<g id="node27" class="node">
<title>AppComponent </title>
<polygon fill="#80b1d3" stroke="black" points="2277.44,-252 2168.56,-252 2168.56,-216 2277.44,-216 2277.44,-252"/>
<text text-anchor="middle" x="2223" y="-229.8" font-family="Times,serif" font-size="14.00">AppComponent </text>
</g>
<!-- AppModule&#45;&gt;AppComponent  -->
<g id="edge26" class="edge">
<title>AppModule&#45;&gt;AppComponent </title>
<path fill="none" stroke="black" stroke-dasharray="1,5" d="M2223,-187.11C2223,-187.11 2223,-205.99 2223,-205.99"/>
<polygon fill="black" stroke="black" points="2219.5,-205.99 2223,-215.99 2226.5,-205.99 2219.5,-205.99"/>
</g>
<!-- AppRoutingModule -->
<g id="node26" class="node">
<title>AppRoutingModule</title>
<polygon fill="#8dd3c7" stroke="black" points="4327.27,-122 4324.27,-126 4303.27,-126 4300.27,-122 4198.73,-122 4198.73,-86 4327.27,-86 4327.27,-122"/>
<text text-anchor="middle" x="4263" y="-99.8" font-family="Times,serif" font-size="14.00">AppRoutingModule</text>
</g>
<!-- AppRoutingModule&#45;&gt;AppModule -->
<g id="edge25" class="edge">
<title>AppRoutingModule&#45;&gt;AppModule</title>
<path fill="none" stroke="black" d="M4263,-122.38C4263,-146.28 4263,-185 4263,-185 4263,-185 2274.67,-185 2274.67,-185"/>
<polygon fill="black" stroke="black" points="2274.67,-181.5 2264.67,-185 2274.67,-188.5 2274.67,-181.5"/>
</g>
<!-- EnchereService -->
<g id="node28" class="node">
<title>EnchereService</title>
<ellipse fill="#fdb462" stroke="black" cx="4103" cy="-104" rx="71.75" ry="18"/>
<text text-anchor="middle" x="4103" y="-99.8" font-family="Times,serif" font-size="14.00">EnchereService</text>
</g>
<!-- EnchereService&#45;&gt;AppModule -->
<g id="edge27" class="edge">
<title>EnchereService&#45;&gt;AppModule</title>
<path fill="none" stroke="black" d="M4103,-122.09C4103,-145.13 4103,-182 4103,-182 4103,-182 2274.9,-182 2274.9,-182"/>
<polygon fill="black" stroke="black" points="2274.9,-178.5 2264.9,-182 2274.9,-185.5 2274.9,-178.5"/>
</g>
</g>
</svg>
